<svg id="Capa_1" enable-background="new 0 0 512 512" height="512" viewBox="0 0 512 512" width="512" xmlns="http://www.w3.org/2000/svg"><g><path d="m189.72 322.28-10.606-10.605-39.433 39.433 10.605 10.606 10.606 10.605 39.433-39.433z" fill="#dfe7f4"/><path d="m147.422 339.801h55.768v14.998h-55.768z" fill="#c7cfe1" transform="matrix(.707 -.707 .707 .707 -194.232 225.682)"/><path d="m454.886 57.114c-35.288-35.288-84.038-57.114-137.886-57.114-107.695 0-195 87.305-195 195 0 53.848 21.826 102.598 57.114 137.886s84.038 57.114 137.886 57.114c107.695 0 195-87.305 195-195 0-53.848-21.826-102.598-57.114-137.886z" fill="#384949"/><path d="m179.114 332.886c35.288 35.288 84.038 57.114 137.886 57.114 107.695 0 195-87.305 195-195 0-53.848-21.826-102.598-57.114-137.886z" fill="#293939"/><path d="m433.618 78.382c-29.877-29.877-71.127-48.382-116.618-48.382-90.981 0-165 74.019-165 165 0 45.491 18.505 86.741 48.382 116.618s71.127 48.382 116.618 48.382c90.981 0 165-74.019 165-165 0-45.491-18.505-86.741-48.382-116.618z" fill="#f0f7ff"/><path d="m482 195c0-45.491-18.505-86.741-48.382-116.618l-233.236 233.236c29.877 29.877 71.127 48.382 116.618 48.382 90.981 0 165-74.019 165-165z" fill="#dfe7f4"/><path d="m160.897 351.103c-.002-.002-.004-.007-.005-.009-17.549-17.534-46.099-17.49-63.647.015l-97.245 97.258 31.816 31.816 31.817 31.817 97.273-97.244c17.518-17.547 17.52-46.088-.009-63.653z" fill="#ff641a"/><path d="m160.897 351.103-129.081 129.081 31.817 31.816 97.273-97.244c17.518-17.547 17.52-46.088-.009-63.653z" fill="#f03800"/><path d="m330.623 181.377c-4.506-.593-8.957-1.377-13.623-1.377-57.891 0-105 47.109-105 105v15h210v-15c0-53.225-39.966-96.861-91.377-103.623z" fill="#97de3d"/><path d="m422 285c0-53.225-39.966-96.861-91.377-103.623l-118.623 118.623h210z" fill="#59c36a"/><path d="m317 180c-33.091 0-60-26.909-60-60s26.909-60 60-60 60 26.909 60 60-26.909 60-60 60z" fill="#fdc"/></g></svg>